<?xml version="1.0" encoding="UTF-8"?>
<svg id="Layer_1" data-name="Layer 1" xmlns="http://www.w3.org/2000/svg" width="471" height="415" version="1.1" viewBox="0 0 471 415">
  <defs>
    <style>
      .cls-1 {
        fill: #565254;
      }

      .cls-1, .cls-2, .cls-3, .cls-4, .cls-5, .cls-6 {
        stroke-width: 0px;
      }

      .cls-2 {
        fill: #0073e6;
      }

      .cls-7 {
        stroke: #565254;
        stroke-width: .8px;
      }

      .cls-7, .cls-8 {
        fill: none;
        stroke-miterlimit: 10;
      }

      .cls-3 {
        fill: #f57600;
      }

      .cls-8 {
        stroke: #b2b0b1;
        stroke-width: .2px;
      }

      .cls-4 {
        fill: #8babf1;
      }

      .cls-5 {
        fill: #054fb9;
      }

      .cls-6 {
        fill: #c44601;
      }
    </style>
  </defs>
  <path class="cls-7" d="M57.5,371.5h390"/>
  <g>
    <path class="cls-8" d="M57.5,300.5h390"/>
    <path class="cls-8" d="M57.5,228.5h390"/>
    <path class="cls-8" d="M57.5,157.5h390"/>
    <path class="cls-8" d="M57.5,85.5h390"/>
    <path class="cls-8" d="M57.5,14.5h390"/>
  </g>
  <path class="cls-5" d="M131,371h-47v-26h47v26Z"/>
  <path class="cls-2" d="M204,371h-47v-50h47v50Z"/>
  <path class="cls-4" d="M276,371h-47v-70h47v70Z"/>
  <path class="cls-3" d="M349,371h-47v-107h47v107Z"/>
  <path class="cls-6" d="M422,371h-47v-146h47v146Z"/>
  <path class="cls-1" d="M45,371.2c0-1,0-1.8.3-2.5.2-.6.5-1.1.9-1.4s.9-.5,1.6-.5.9,0,1.2.3c.4.2.6.5.9.8.2.3.4.8.5,1.3s.2,1.2.2,2,0,1.8-.3,2.4-.5,1.1-.9,1.4-.9.5-1.6.5-1.5-.3-2-.9c-.6-.7-.8-1.9-.8-3.5h0ZM46.1,371.2c0,1.4.2,2.3.5,2.8s.7.7,1.2.7.9-.2,1.2-.7.5-1.4.5-2.8-.2-2.4-.5-2.8c-.3-.5-.7-.7-1.2-.7s-.9.2-1.2.6c-.4.5-.5,1.5-.5,2.9Z"/>
  <path class="cls-1" d="M31,301.8h1.1c0,.4.3.9.6,1.1.3.3.7.4,1.1.4s.9-.2,1.3-.6c.4-.4.5-.9.5-1.5s-.2-1.1-.5-1.4c-.3-.4-.8-.5-1.3-.5s-.6,0-.9.2c-.3.2-.5.4-.6.6h-1c0-.1.8-4.5.8-4.5h4.3v1h-3.4l-.5,2.3c.5-.4,1-.5,1.6-.5s1.4.3,1.9.8.8,1.2.8,2-.2,1.4-.7,2c-.6.7-1.3,1-2.2,1s-1.4-.2-1.9-.7c-.5-.4-.8-1-.8-1.7h-.2,0ZM38,299.8c0-1,0-1.8.3-2.5.2-.6.5-1.1.9-1.4s.9-.5,1.6-.5.9,0,1.2.3c.4.2.6.5.9.8.2.3.4.8.5,1.3s.2,1.2.2,2,0,1.8-.3,2.4-.5,1.1-.9,1.4-.9.5-1.6.5-1.5-.3-2-.9c-.6-.7-.8-1.9-.8-3.5h0ZM39.1,299.8c0,1.4.2,2.3.5,2.8s.7.7,1.2.7.9-.2,1.2-.7.5-1.4.5-2.8-.2-2.4-.5-2.8c-.3-.5-.7-.7-1.2-.7s-.9.2-1.2.6c-.4.5-.5,1.5-.5,2.9ZM45,299.8c0-1,0-1.8.3-2.5.2-.6.5-1.1.9-1.4s.9-.5,1.6-.5.9,0,1.2.3c.4.2.6.5.9.8.2.3.4.8.5,1.3s.2,1.2.2,2,0,1.8-.3,2.4-.5,1.1-.9,1.4-.9.5-1.6.5-1.5-.3-2-.9c-.6-.7-.8-1.9-.8-3.5h0ZM46.1,299.8c0,1.4.2,2.3.5,2.8s.7.7,1.2.7.9-.2,1.2-.7.5-1.4.5-2.8-.2-2.4-.5-2.8c-.3-.5-.7-.7-1.2-.7s-.9.2-1.2.6c-.4.5-.5,1.5-.5,2.9Z"/>
  <path class="cls-1" d="M28,232.6h-1v-6.7c-.3.2-.6.5-1,.7s-.8.4-1.1.5v-1c.6-.3,1.1-.6,1.5-1s.8-.8,1-1.2h.7v8.6h-.1ZM31,228.3c0-1,.1-1.8.3-2.5.2-.6.5-1.1.9-1.4s.9-.5,1.6-.5.9,0,1.2.3c.4.2.6.5.9.8.2.3.4.8.5,1.3s.2,1.2.2,2,0,1.8-.3,2.4-.5,1.1-.9,1.4-.9.5-1.6.5-1.5-.3-2-.9c-.6-.7-.8-1.9-.8-3.5h0ZM32.1,228.3c0,1.4.2,2.3.5,2.8s.7.7,1.2.7.9-.2,1.2-.7.5-1.4.5-2.8-.2-2.4-.5-2.8c-.3-.5-.7-.7-1.2-.7s-.9.2-1.2.6c-.4.5-.5,1.5-.5,2.9ZM38,228.3c0-1,0-1.8.3-2.5.2-.6.5-1.1.9-1.4s.9-.5,1.6-.5.9,0,1.2.3c.4.2.6.5.9.8.2.3.4.8.5,1.3s.2,1.2.2,2,0,1.8-.3,2.4-.5,1.1-.9,1.4-.9.5-1.6.5-1.5-.3-2-.9c-.6-.7-.8-1.9-.8-3.5h0ZM39.1,228.3c0,1.4.2,2.3.5,2.8s.7.7,1.2.7.9-.2,1.2-.7.5-1.4.5-2.8-.2-2.4-.5-2.8c-.3-.5-.7-.7-1.2-.7s-.9.2-1.2.6c-.4.5-.5,1.5-.5,2.9ZM45,228.3c0-1,0-1.8.3-2.5.2-.6.5-1.1.9-1.4s.9-.5,1.6-.5.9,0,1.2.3c.4.2.6.5.9.8.2.3.4.8.5,1.3s.2,1.2.2,2,0,1.8-.3,2.4-.5,1.1-.9,1.4-.9.5-1.6.5-1.5-.3-2-.9c-.6-.7-.8-1.9-.8-3.5h0ZM46.1,228.3c0,1.4.2,2.3.5,2.8s.7.7,1.2.7.9-.2,1.2-.7.5-1.4.5-2.8-.2-2.4-.5-2.8c-.3-.5-.7-.7-1.2-.7s-.9.2-1.2.6c-.4.5-.5,1.5-.5,2.9Z"/>
  <path class="cls-1" d="M28,161.1h-1v-6.7c-.3.2-.6.5-1,.7s-.8.4-1.1.5v-1c.6-.3,1.1-.6,1.5-1s.8-.8,1-1.2h.7v8.6h-.1ZM31,158.9h1.1c0,.4.3.9.6,1.1.3.3.7.4,1.1.4s.9-.2,1.3-.6c.4-.4.5-.9.5-1.5s-.2-1.1-.5-1.4c-.3-.4-.8-.5-1.3-.5s-.6,0-.9.2c-.3.2-.5.4-.6.6h-1c0-.1.8-4.5.8-4.5h4.3v1h-3.4l-.5,2.3c.5-.4,1-.5,1.6-.5s1.4.3,1.9.8.8,1.2.8,2-.2,1.4-.7,2c-.6.7-1.3,1-2.2,1s-1.4-.2-1.9-.7c-.5-.4-.8-1-.8-1.7h-.2,0ZM38,156.9c0-1,0-1.8.3-2.5.2-.6.5-1.1.9-1.4.4-.3.9-.5,1.6-.5s.9,0,1.2.3c.4.2.6.5.9.8.2.3.4.8.5,1.3s.2,1.2.2,2,0,1.8-.3,2.4c-.2.6-.5,1.1-.9,1.4-.4.3-.9.5-1.6.5s-1.5-.3-2-.9c-.6-.7-.8-1.9-.8-3.5h0ZM39.1,156.9c0,1.4.2,2.3.5,2.8s.7.7,1.2.7.9-.2,1.2-.7.5-1.4.5-2.8-.2-2.4-.5-2.8c-.3-.5-.7-.7-1.2-.7s-.9.2-1.2.6c-.4.5-.5,1.5-.5,2.9ZM45,156.9c0-1,0-1.8.3-2.5.2-.6.5-1.1.9-1.4.4-.3.9-.5,1.6-.5s.9,0,1.2.3c.4.2.6.5.9.8.2.3.4.8.5,1.3s.2,1.2.2,2,0,1.8-.3,2.4c-.2.6-.5,1.1-.9,1.4-.4.3-.9.5-1.6.5s-1.5-.3-2-.9c-.6-.7-.8-1.9-.8-3.5h0ZM46.1,156.9c0,1.4.2,2.3.5,2.8s.7.7,1.2.7.9-.2,1.2-.7.5-1.4.5-2.8-.2-2.4-.5-2.8c-.3-.5-.7-.7-1.2-.7s-.9.2-1.2.6c-.4.5-.5,1.5-.5,2.9Z"/>
  <path class="cls-1" d="M29.6,88.7v1h-5.7c0-.2,0-.5.1-.7.1-.4.4-.8.7-1.1.3-.4.8-.8,1.4-1.3.9-.8,1.6-1.4,1.9-1.8.3-.4.5-.9.5-1.3s-.2-.8-.5-1c-.3-.3-.7-.4-1.2-.4s-.9.2-1.2.5c-.3.3-.5.7-.5,1.3h-1.1c0-.9.3-1.5.8-2,.5-.4,1.1-.6,2-.6s1.5.2,2,.7.7,1,.7,1.7,0,.7-.2,1c-.1.3-.4.7-.7,1-.3.4-.9.9-1.6,1.5-.6.5-1,.9-1.2,1.1-.2.2-.3.4-.4.6h4.2s0-.2,0-.2ZM31,85.5c0-1,.1-1.8.3-2.5.2-.6.5-1.1.9-1.4.4-.3.9-.5,1.6-.5s.9,0,1.2.3c.4.2.6.5.9.8.2.3.4.8.5,1.3s.2,1.2.2,2,0,1.8-.3,2.4c-.2.6-.5,1.1-.9,1.4-.4.3-.9.5-1.6.5s-1.5-.3-2-.9c-.6-.7-.8-1.9-.8-3.5h0ZM32.1,85.5c0,1.4.2,2.3.5,2.8s.7.7,1.2.7.9-.2,1.2-.7.5-1.4.5-2.8-.2-2.4-.5-2.8c-.3-.5-.7-.7-1.2-.7s-.9.2-1.2.6c-.4.5-.5,1.5-.5,2.9ZM38,85.5c0-1,0-1.8.3-2.5.2-.6.5-1.1.9-1.4.4-.3.9-.5,1.6-.5s.9,0,1.2.3c.4.2.6.5.9.8.2.3.4.8.5,1.3s.2,1.2.2,2,0,1.8-.3,2.4c-.2.6-.5,1.1-.9,1.4-.4.3-.9.5-1.6.5s-1.5-.3-2-.9c-.6-.7-.8-1.9-.8-3.5h0ZM39.1,85.5c0,1.4.2,2.3.5,2.8s.7.7,1.2.7.9-.2,1.2-.7.5-1.4.5-2.8-.2-2.4-.5-2.8c-.3-.5-.7-.7-1.2-.7s-.9.2-1.2.6c-.4.5-.5,1.5-.5,2.9ZM45,85.5c0-1,0-1.8.3-2.5.2-.6.5-1.1.9-1.4.4-.3.9-.5,1.6-.5s.9,0,1.2.3c.4.2.6.5.9.8.2.3.4.8.5,1.3s.2,1.2.2,2,0,1.8-.3,2.4c-.2.6-.5,1.1-.9,1.4-.4.3-.9.5-1.6.5s-1.5-.3-2-.9c-.6-.7-.8-1.9-.8-3.5h0ZM46.1,85.5c0,1.4.2,2.3.5,2.8s.7.7,1.2.7.9-.2,1.2-.7.5-1.4.5-2.8-.2-2.4-.5-2.8c-.3-.5-.7-.7-1.2-.7s-.9.2-1.2.6c-.4.5-.5,1.5-.5,2.9Z"/>
  <path class="cls-1" d="M29.6,17.2v1h-5.7c0-.2,0-.5.1-.7.1-.4.4-.8.7-1.1.3-.4.8-.8,1.4-1.3.9-.8,1.6-1.4,1.9-1.8s.5-.9.5-1.3-.2-.8-.5-1c-.3-.3-.7-.4-1.2-.4s-.9.2-1.2.5c-.3.3-.5.7-.5,1.3h-1.1c0-.9.3-1.5.8-2,.5-.4,1.1-.6,2-.6s1.5.2,2,.7.7,1,.7,1.7,0,.7-.2,1c-.1.3-.4.7-.7,1-.3.4-.9.9-1.6,1.5-.6.5-1,.9-1.2,1.1s-.3.4-.4.6h4.2s0-.2,0-.2ZM31,16h1.1c0,.4.3.9.6,1.1.3.3.7.4,1.1.4s.9-.2,1.3-.6c.4-.4.5-.9.5-1.5s-.2-1.1-.5-1.4c-.3-.4-.8-.5-1.3-.5s-.6,0-.9.2c-.3.2-.5.4-.6.6h-1l.8-4.5h4.3v1h-3.4l-.5,2.3c.5-.4,1-.5,1.6-.5s1.4.3,1.9.8.8,1.2.8,2-.2,1.4-.7,2c-.6.7-1.3,1-2.2,1s-1.4-.2-1.9-.7c-.5-.4-.8-1-.8-1.7,0,0-.2,0-.2,0ZM38,14c0-1,0-1.8.3-2.5.2-.6.5-1.1.9-1.4s.9-.5,1.6-.5.9,0,1.2.3c.4.2.6.5.9.8.2.3.4.8.5,1.3s.2,1.2.2,2,0,1.8-.3,2.4-.5,1.1-.9,1.4-.9.5-1.6.5-1.5-.3-2-.9c-.6-.7-.8-1.9-.8-3.5h0ZM39.1,14c0,1.4.2,2.3.5,2.8s.7.7,1.2.7.9-.2,1.2-.7.5-1.4.5-2.8-.2-2.4-.5-2.8c-.3-.5-.7-.7-1.2-.7s-.9.2-1.2.6c-.4.5-.5,1.5-.5,2.9ZM45,14c0-1,0-1.8.3-2.5.2-.6.5-1.1.9-1.4s.9-.5,1.6-.5.9,0,1.2.3c.4.2.6.5.9.8.2.3.4.8.5,1.3s.2,1.2.2,2,0,1.8-.3,2.4-.5,1.1-.9,1.4-.9.5-1.6.5-1.5-.3-2-.9c-.6-.7-.8-1.9-.8-3.5h0ZM46.1,14c0,1.4.2,2.3.5,2.8s.7.7,1.2.7.9-.2,1.2-.7.5-1.4.5-2.8-.2-2.4-.5-2.8c-.3-.5-.7-.7-1.2-.7s-.9.2-1.2.6c-.4.5-.5,1.5-.5,2.9Z"/>
  <path class="cls-1" d="M70,388.5v-8.6h1.1v8.6h-1.1ZM77.3,386.5h1.1c-.2.8-.5,1.3-1,1.6-.5.4-1.1.5-1.8.5s-1.6-.3-2.2-.8c-.5-.6-.8-1.3-.8-2.4s.3-1.8.8-2.4,1.2-.9,2.1-.9,1.5.3,2,.8c.5.6.8,1.4.8,2.4v.3h-4.6c0,.7.2,1.2.6,1.6.3.4.8.5,1.3.5s.7,0,1-.3c.3-.2.5-.5.7-1h0ZM73.8,384.7h3.5c0-.5-.2-.9-.4-1.2-.3-.4-.8-.6-1.3-.6s-.9.2-1.2.5c-.3.3-.5.8-.5,1.3h0ZM79.6,386.6l1-.2c0,.4.2.7.5,1,.3.2.7.3,1.1.3s.8,0,1.1-.3c.2-.2.4-.4.4-.7s0-.4-.3-.6c0,0-.5-.2-1.1-.4-.8-.2-1.3-.4-1.6-.5-.3-.1-.5-.3-.7-.6-.2-.2-.2-.5-.2-.8s0-.5.2-.8c0-.2.3-.4.5-.6.2-.1.4-.2.7-.3.3,0,.6-.1.9-.1.5,0,.9,0,1.3.2.4.1.7.3.8.6.2.2.3.6.4,1h-1c0-.2-.2-.4-.4-.6-.2-.2-.5-.3-1-.3s-.8,0-1,.2-.3.3-.3.6v.4c0,.1.2.2.4.3,0,0,.4.1.9.3.8.2,1.3.4,1.6.5.3.1.5.3.7.5s.2.5.2.9,0,.7-.3,1c-.2.3-.5.5-.9.7s-.8.3-1.3.2c-.8,0-1.4-.2-1.9-.5-.4-.3-.7-.8-.8-1.5h.1ZM86.6,386.6l1-.2c0,.4.2.7.5,1,.3.2.7.3,1.1.3s.8,0,1.1-.3c.2-.2.4-.4.4-.7s0-.4-.3-.6c0,0-.5-.2-1.1-.4-.8-.2-1.3-.4-1.6-.5-.3-.1-.5-.3-.7-.6-.2-.2-.2-.5-.2-.8s0-.5.2-.8c0-.2.3-.4.5-.6.2-.1.4-.2.7-.3.3,0,.6-.1.9-.1.5,0,.9,0,1.3.2.4.1.7.3.8.6.2.2.3.6.4,1h-1c0-.2-.2-.4-.4-.6-.2-.2-.5-.3-1-.3s-.8,0-1,.2-.3.3-.3.6v.4c0,.1.2.2.4.3,0,0,.4.1.9.3.8.2,1.3.4,1.6.5.3.1.5.3.7.5s.2.5.2.9,0,.7-.3,1c-.2.3-.5.5-.9.7s-.8.3-1.3.2c-.8,0-1.4-.2-1.9-.5-.4-.3-.7-.8-.8-1.5h.1ZM99.3,387.5l.2.9h-.8c-.4,0-.7,0-.9-.2-.2-.1-.4-.3-.5-.5v-4.8h-.8v-.8h.8v-1.5l1-.6v2.2h1.1v.8h-1.1v4.2s0,.2.2.2h.9,0ZM100,388.5v-8.6h1v3.1c.5-.6,1.1-.8,1.9-.8s.9,0,1.2.3c.3.2.6.4.7.8,0,.3.2.8.2,1.4v3.9h-1v-3.9c0-.5,0-.9-.3-1.2-.2-.2-.6-.4-1-.4s-.6,0-.9.2-.5.4-.6.7c0,.3-.2.7-.2,1.1v3.4s-1,0-1,0ZM111.1,387.7c-.4.3-.8.6-1.1.7-.4.1-.7.2-1.2.2s-1.2-.2-1.6-.5-.5-.8-.5-1.3,0-.6.2-.8c0-.3.3-.5.5-.6.2-.2.5-.3.8-.3s.5-.1.9-.2c.8,0,1.5-.2,1.9-.4v-.3c0-.4,0-.7-.3-.9-.3-.2-.7-.3-1.2-.3s-.9,0-1.1.3c-.2.2-.4.5-.5.9h-1c0-.6.2-.9.5-1.2.2-.3.5-.5.9-.6s.9-.2,1.4-.2,1,0,1.3.2c.3.1.6.3.7.5.2.2.3.4.3.7v4.3c0,.3,0,.5.3.8h-1.1c0-.2-.2-.5-.2-.8v-.2h0ZM111,385.3c-.4.2-1,.3-1.7.4-.4,0-.7.1-.9.2-.2,0-.3.2-.4.3v.5c0,.3,0,.5.3.7.2.2.5.3.9.3s.8,0,1.1-.3c.3-.2.6-.4.7-.7,0-.2.2-.6.2-1v-.4h-.2ZM114,388.5v-6.2h.9v.9c.5-.7,1.1-1,2-1s.7,0,1,.2c.3.1.6.3.7.5.2.2.3.5.3.8v4.8h-1v-4.8c0-.2-.2-.4-.4-.5-.2-.1-.5-.2-.7-.2-.4,0-.8.1-1.2.4-.3.3-.5.8-.5,1.6v3.4h-1.1ZM127.7,388.5h-1v-6.7c-.3.2-.6.5-1,.7s-.8.4-1.1.5v-1c.6-.3,1.1-.6,1.5-1s.8-.8,1-1.2h.7v8.6h0ZM130.7,384.2c0-1,.1-1.8.3-2.5.2-.6.5-1.1.9-1.4s.9-.5,1.6-.5.9,0,1.2.3c.4.2.6.5.9.8.2.3.4.8.5,1.3s.2,1.2.2,2-.1,1.8-.3,2.4-.5,1.1-.9,1.4-.9.5-1.6.5-1.5-.3-2-.9c-.6-.7-.8-1.9-.8-3.5h0ZM131.8,384.2c0,1.4.2,2.3.5,2.8s.7.7,1.2.7.9-.2,1.2-.7.5-1.4.5-2.8-.2-2.4-.5-2.8c-.3-.5-.7-.7-1.2-.7s-.9.2-1.2.6c-.4.5-.5,1.5-.5,2.9ZM137.7,384.2c0-1,.1-1.8.3-2.5.2-.6.5-1.1.9-1.4s.9-.5,1.6-.5.9,0,1.2.3c.4.2.6.5.9.8.2.3.4.8.5,1.3s.2,1.2.2,2-.1,1.8-.3,2.4-.5,1.1-.9,1.4-.9.5-1.6.5-1.5-.3-2-.9c-.6-.7-.8-1.9-.8-3.5h0ZM138.8,384.2c0,1.4.2,2.3.5,2.8s.7.7,1.2.7.9-.2,1.2-.7.5-1.4.5-2.8-.2-2.4-.5-2.8c-.3-.5-.7-.7-1.2-.7s-.9.2-1.2.6c-.4.5-.5,1.5-.5,2.9Z"/>
  <path class="cls-1" d="M156.6,388.5h-1v-6.7c-.3.2-.6.5-1,.7s-.8.4-1.1.5v-1c.6-.3,1.1-.6,1.5-1s.8-.8,1-1.2h.7v8.6h0ZM159.6,384.2c0-1,.1-1.8.3-2.5.2-.6.5-1.1.9-1.4s.9-.5,1.6-.5.9,0,1.2.3c.4.2.6.5.9.8.2.3.4.8.5,1.3s.2,1.2.2,2-.1,1.8-.3,2.4-.5,1.1-.9,1.4-.9.5-1.6.5-1.5-.3-2-.9c-.6-.7-.8-1.9-.8-3.5h0ZM160.7,384.2c0,1.4.2,2.3.5,2.8s.7.7,1.2.7.9-.2,1.2-.7.5-1.4.5-2.8-.2-2.4-.5-2.8c-.3-.5-.7-.7-1.2-.7s-.9.2-1.2.6c-.4.5-.5,1.5-.5,2.9ZM166.6,384.2c0-1,.1-1.8.3-2.5.2-.6.5-1.1.9-1.4s.9-.5,1.6-.5.9,0,1.2.3c.4.2.6.5.9.8.2.3.4.8.5,1.3s.2,1.2.2,2-.1,1.8-.3,2.4-.5,1.1-.9,1.4-.9.5-1.6.5-1.5-.3-2-.9c-.6-.7-.8-1.9-.8-3.5h0ZM167.7,384.2c0,1.4.2,2.3.5,2.8s.7.7,1.2.7.9-.2,1.2-.7.5-1.4.5-2.8-.2-2.4-.5-2.8c-.3-.5-.7-.7-1.2-.7s-.9.2-1.2.6c-.4.5-.5,1.5-.5,2.9ZM176.1,385.8v-.8h6.7v.8h-6.7ZM192.2,387.4v1h-5.7c0-.2,0-.5.1-.7.1-.4.4-.8.7-1.1.3-.4.8-.8,1.4-1.3.9-.8,1.6-1.4,1.9-1.8.3-.4.5-.9.5-1.3s-.2-.8-.5-1c-.3-.3-.7-.4-1.2-.4s-.9.2-1.2.5-.5.7-.5,1.3h-1.1c0-.9.3-1.5.8-2,.5-.4,1.1-.6,2-.6s1.5.2,2,.7.7,1,.7,1.7,0,.7-.2,1c-.1.3-.4.7-.7,1-.3.4-.9.9-1.6,1.5-.6.5-1,.9-1.2,1.1s-.3.4-.4.6h4.2v-.2h0ZM193.6,384.2c0-1,.1-1.8.3-2.5.2-.6.5-1.1.9-1.4s.9-.5,1.6-.5.9,0,1.2.3c.4.2.6.5.9.8.2.3.4.8.5,1.3s.2,1.2.2,2-.1,1.8-.3,2.4-.5,1.1-.9,1.4-.9.5-1.6.5-1.5-.3-2-.9c-.6-.7-.8-1.9-.8-3.5h0ZM194.7,384.2c0,1.4.2,2.3.5,2.8s.7.7,1.2.7.9-.2,1.2-.7.5-1.4.5-2.8-.2-2.4-.5-2.8c-.3-.5-.7-.7-1.2-.7s-.9.2-1.2.6c-.4.5-.5,1.5-.5,2.9ZM200.6,384.2c0-1,.1-1.8.3-2.5.2-.6.5-1.1.9-1.4s.9-.5,1.6-.5.9,0,1.2.3c.4.2.6.5.9.8.2.3.4.8.5,1.3s.2,1.2.2,2-.1,1.8-.3,2.4-.5,1.1-.9,1.4-.9.5-1.6.5-1.5-.3-2-.9c-.6-.7-.8-1.9-.8-3.5h0ZM201.7,384.2c0,1.4.2,2.3.5,2.8s.7.7,1.2.7.9-.2,1.2-.7.5-1.4.5-2.8-.2-2.4-.5-2.8c-.3-.5-.7-.7-1.2-.7s-.9.2-1.2.6c-.4.5-.5,1.5-.5,2.9Z"/>
  <path class="cls-1" d="M231,387.4v1h-5.7c0-.2,0-.5.1-.7.1-.4.4-.8.7-1.1.3-.4.8-.8,1.4-1.3.9-.8,1.6-1.4,1.9-1.8.3-.4.5-.9.5-1.3s-.2-.8-.5-1c-.3-.3-.7-.4-1.2-.4s-.9.2-1.2.5-.5.7-.5,1.3h-1.1c0-.9.3-1.5.8-2,.5-.4,1.1-.6,2-.6s1.5.2,2,.7.7,1,.7,1.7,0,.7-.2,1c-.1.3-.4.7-.7,1-.3.4-.9.9-1.6,1.5-.6.5-1,.9-1.2,1.1s-.3.4-.4.6h4.2v-.2h0ZM232.5,384.2c0-1,.1-1.8.3-2.5.2-.6.5-1.1.9-1.4s.9-.5,1.6-.5.9,0,1.2.3c.4.2.6.5.9.8.2.3.4.8.5,1.3s.2,1.2.2,2-.1,1.8-.3,2.4-.5,1.1-.9,1.4-.9.5-1.6.5-1.5-.3-2-.9c-.6-.7-.8-1.9-.8-3.5h0ZM233.6,384.2c0,1.4.2,2.3.5,2.8s.7.7,1.2.7.9-.2,1.2-.7.5-1.4.5-2.8-.2-2.4-.5-2.8c-.3-.5-.7-.7-1.2-.7s-.9.2-1.2.6c-.4.5-.5,1.5-.5,2.9ZM239.5,384.2c0-1,.1-1.8.3-2.5.2-.6.5-1.1.9-1.4s.9-.5,1.6-.5.9,0,1.2.3c.4.2.6.5.9.8.2.3.4.8.5,1.3s.2,1.2.2,2-.1,1.8-.3,2.4-.5,1.1-.9,1.4-.9.5-1.6.5-1.5-.3-2-.9c-.6-.7-.8-1.9-.8-3.5h0ZM240.6,384.2c0,1.4.2,2.3.5,2.8s.7.7,1.2.7.9-.2,1.2-.7.5-1.4.5-2.8-.2-2.4-.5-2.8c-.3-.5-.7-.7-1.2-.7s-.9.2-1.2.6c-.4.5-.5,1.5-.5,2.9ZM249,385.8v-.8h6.7v.8h-6.7ZM259.5,386.2h1.1c.1.5.3.9.6,1.2s.6.4,1.1.4.9-.2,1.3-.5c.3-.3.5-.8.5-1.3s-.2-.9-.5-1.2c-.3-.3-.7-.5-1.2-.5s-.4,0-.8.1v-.9h.3c.4,0,.8-.1,1.2-.3.4-.2.5-.6.5-1.1s-.1-.7-.4-1-.6-.4-1-.4-.8.1-1,.4c-.3.3-.4.6-.5,1.2l-1.1-.2c.1-.7.4-1.2.9-1.6s1-.6,1.7-.6.9.1,1.3.3c.4.2.7.5.9.8.2.3.3.7.3,1.1s0,.7-.3,1c-.2.3-.5.5-.9.7.5.1.9.4,1.2.7.3.4.4.8.4,1.4s-.3,1.4-.8,1.9-1.2.8-2.1.8-1.4-.2-1.9-.7-.8-1-.9-1.8h0ZM266.5,384.2c0-1,.1-1.8.3-2.5.2-.6.5-1.1.9-1.4s.9-.5,1.6-.5.9,0,1.2.3c.4.2.6.5.9.8.2.3.4.8.5,1.3s.2,1.2.2,2-.1,1.8-.3,2.4c-.2.6-.5,1.1-.9,1.4s-.9.5-1.6.5-1.5-.3-2-.9c-.6-.7-.8-1.9-.8-3.5h0ZM267.6,384.2c0,1.4.2,2.3.5,2.8s.7.7,1.2.7.9-.2,1.2-.7c.3-.5.5-1.4.5-2.8s-.2-2.4-.5-2.8c-.3-.5-.7-.7-1.2-.7s-.9.2-1.2.6c-.4.5-.5,1.5-.5,2.9ZM273.5,384.2c0-1,.1-1.8.3-2.5.2-.6.5-1.1.9-1.4s.9-.5,1.6-.5.9,0,1.2.3c.4.2.6.5.9.8.2.3.4.8.5,1.3s.2,1.2.2,2-.1,1.8-.3,2.4c-.2.6-.5,1.1-.9,1.4s-.9.5-1.6.5-1.5-.3-2-.9c-.6-.7-.8-1.9-.8-3.5h0ZM274.6,384.2c0,1.4.2,2.3.5,2.8s.7.7,1.2.7.9-.2,1.2-.7c.3-.5.5-1.4.5-2.8s-.2-2.4-.5-2.8c-.3-.5-.7-.7-1.2-.7s-.9.2-1.2.6c-.4.5-.5,1.5-.5,2.9Z"/>
  <path class="cls-1" d="M298.4,386.2h1.1c.1.5.3.9.6,1.2s.6.4,1.1.4.9-.2,1.3-.5c.3-.3.5-.8.5-1.3s-.2-.9-.5-1.2c-.3-.3-.7-.5-1.2-.5s-.4,0-.8.1v-.9h.3c.4,0,.8-.1,1.2-.3.4-.2.5-.6.5-1.1s-.1-.7-.4-1-.6-.4-1-.4-.8.1-1,.4c-.3.3-.4.6-.5,1.2l-1.1-.2c.1-.7.4-1.2.9-1.6s1-.6,1.7-.6.9.1,1.3.3c.4.2.7.5.9.8.2.3.3.7.3,1.1s0,.7-.3,1c-.2.3-.5.5-.9.7.5.1.9.4,1.2.7.3.4.4.8.4,1.4s-.3,1.4-.8,1.9-1.2.8-2.1.8-1.4-.2-1.9-.7-.8-1-.9-1.8h0ZM305.4,384.2c0-1,.1-1.8.3-2.5.2-.6.5-1.1.9-1.4s.9-.5,1.6-.5.9,0,1.2.3c.4.2.6.5.9.8.2.3.4.8.5,1.3s.2,1.2.2,2-.1,1.8-.3,2.4c-.2.6-.5,1.1-.9,1.4s-.9.5-1.6.5-1.5-.3-2-.9c-.6-.7-.8-1.9-.8-3.5h0ZM306.5,384.2c0,1.4.2,2.3.5,2.8s.7.7,1.2.7.9-.2,1.2-.7c.3-.5.5-1.4.5-2.8s-.2-2.4-.5-2.8c-.3-.5-.7-.7-1.2-.7s-.9.2-1.2.6c-.4.5-.5,1.5-.5,2.9ZM312.4,384.2c0-1,.1-1.8.3-2.5.2-.6.5-1.1.9-1.4s.9-.5,1.6-.5.9,0,1.2.3c.4.2.6.5.9.8.2.3.4.8.5,1.3s.2,1.2.2,2-.1,1.8-.3,2.4c-.2.6-.5,1.1-.9,1.4s-.9.5-1.6.5-1.5-.3-2-.9c-.6-.7-.8-1.9-.8-3.5h0ZM313.5,384.2c0,1.4.2,2.3.5,2.8s.7.7,1.2.7.9-.2,1.2-.7c.3-.5.5-1.4.5-2.8s-.2-2.4-.5-2.8c-.3-.5-.7-.7-1.2-.7s-.9.2-1.2.6c-.4.5-.5,1.5-.5,2.9ZM321.8,385.8v-.8h6.7v.8h-6.7ZM335.8,388.5v-2.1h-3.7v-1l3.9-5.6h.9v5.6h1.2v1h-1.2v2.1h-1.1,0ZM335.8,385.4v-3.9l-2.7,3.9h2.7ZM339.4,384.2c0-1,.1-1.8.3-2.5.2-.6.5-1.1.9-1.4s.9-.5,1.6-.5.9,0,1.2.3c.4.2.6.5.9.8.2.3.4.8.5,1.3s.2,1.2.2,2-.1,1.8-.3,2.4c-.2.6-.5,1.1-.9,1.4s-.9.5-1.6.5-1.5-.3-2-.9c-.6-.7-.8-1.9-.8-3.5h0ZM340.5,384.2c0,1.4.2,2.3.5,2.8s.7.7,1.2.7.9-.2,1.2-.7c.3-.5.5-1.4.5-2.8s-.2-2.4-.5-2.8c-.3-.5-.7-.7-1.2-.7s-.9.2-1.2.6c-.4.5-.5,1.5-.5,2.9ZM346.4,384.2c0-1,.1-1.8.3-2.5.2-.6.5-1.1.9-1.4s.9-.5,1.6-.5.9,0,1.2.3c.4.2.6.5.9.8.2.3.4.8.5,1.3s.2,1.2.2,2-.1,1.8-.3,2.4c-.2.6-.5,1.1-.9,1.4s-.9.5-1.6.5-1.5-.3-2-.9c-.6-.7-.8-1.9-.8-3.5h0ZM347.5,384.2c0,1.4.2,2.3.5,2.8s.7.7,1.2.7.9-.2,1.2-.7c.3-.5.5-1.4.5-2.8s-.2-2.4-.5-2.8c-.3-.5-.7-.7-1.2-.7s-.9.2-1.2.6c-.4.5-.5,1.5-.5,2.9Z"/>
  <path class="cls-1" d="M374.6,388.5v-2.1h-3.7v-1l3.9-5.6h.9v5.6h1.2v1h-1.2v2.1h-1.1,0ZM374.6,385.4v-3.9l-2.7,3.9h2.7ZM378.3,384.2c0-1,.1-1.8.3-2.5.2-.6.5-1.1.9-1.4s.9-.5,1.6-.5.9,0,1.2.3c.4.2.6.5.9.8.2.3.4.8.5,1.3s.2,1.2.2,2-.1,1.8-.3,2.4c-.2.6-.5,1.1-.9,1.4s-.9.5-1.6.5-1.5-.3-2-.9c-.6-.7-.8-1.9-.8-3.5h0ZM379.3,384.2c0,1.4.2,2.3.5,2.8s.7.7,1.2.7.9-.2,1.2-.7c.3-.5.5-1.4.5-2.8s-.2-2.4-.5-2.8c-.3-.5-.7-.7-1.2-.7s-.9.2-1.2.6c-.4.5-.5,1.5-.5,2.9ZM385.3,384.2c0-1,.1-1.8.3-2.5.2-.6.5-1.1.9-1.4s.9-.5,1.6-.5.9,0,1.2.3c.4.2.6.5.9.8.2.3.4.8.5,1.3s.2,1.2.2,2-.1,1.8-.3,2.4c-.2.6-.5,1.1-.9,1.4s-.9.5-1.6.5-1.5-.3-2-.9c-.6-.7-.8-1.9-.8-3.5h0ZM386.3,384.2c0,1.4.2,2.3.5,2.8s.7.7,1.2.7.9-.2,1.2-.7c.3-.5.5-1.4.5-2.8s-.2-2.4-.5-2.8c-.3-.5-.7-.7-1.2-.7s-.9.2-1.2.6c-.4.5-.5,1.5-.5,2.9ZM394.7,385.8v-.8h6.7v.8h-6.7ZM405.3,386.2h1.1c0,.4.3.9.6,1.1.3.3.7.4,1.1.4s.9-.2,1.3-.6.5-.9.5-1.5-.2-1.1-.5-1.4c-.3-.4-.8-.5-1.3-.5s-.6,0-.9.2-.5.4-.6.6h-1c0-.1.8-4.5.8-4.5h4.3v1h-3.4l-.5,2.3c.5-.4,1-.5,1.6-.5s1.4.3,1.9.8.8,1.2.8,2-.2,1.4-.7,2c-.6.7-1.3,1-2.2,1s-1.4-.2-1.9-.7c-.5-.4-.8-1-.8-1.7h-.2,0ZM412.3,384.2c0-1,.1-1.8.3-2.5.2-.6.5-1.1.9-1.4s.9-.5,1.6-.5.9,0,1.2.3c.4.2.6.5.9.8.2.3.4.8.5,1.3s.2,1.2.2,2-.1,1.8-.3,2.4c-.2.6-.5,1.1-.9,1.4s-.9.5-1.6.5-1.5-.3-2-.9c-.6-.7-.8-1.9-.8-3.5h0ZM413.3,384.2c0,1.4.2,2.3.5,2.8s.7.7,1.2.7.9-.2,1.2-.7c.3-.5.5-1.4.5-2.8s-.2-2.4-.5-2.8c-.3-.5-.7-.7-1.2-.7s-.9.2-1.2.6c-.4.5-.5,1.5-.5,2.9ZM419.3,384.2c0-1,.1-1.8.3-2.5.2-.6.5-1.1.9-1.4s.9-.5,1.6-.5.9,0,1.2.3c.4.2.6.5.9.8.2.3.4.8.5,1.3s.2,1.2.2,2-.1,1.8-.3,2.4c-.2.6-.5,1.1-.9,1.4s-.9.5-1.6.5-1.5-.3-2-.9c-.6-.7-.8-1.9-.8-3.5h0ZM420.3,384.2c0,1.4.2,2.3.5,2.8s.7.7,1.2.7.9-.2,1.2-.7c.3-.5.5-1.4.5-2.8s-.2-2.4-.5-2.8c-.3-.5-.7-.7-1.2-.7s-.9.2-1.2.6c-.4.5-.5,1.5-.5,2.9Z"/>
</svg>